AmstelvarA2-Roman_wdth125.ufo
<glyph name="exclam" format="2">
  <advance width="607"/>
  <unicode hex="0021"/>
  <outline>
    <contour>
      <point x="158" y="122" type="qcurve" smooth="yes"/>
      <point x="158" y="181"/>
      <point x="240" y="267"/>
      <point x="303" y="267" type="qcurve" smooth="yes"/>
      <point x="367" y="267"/>
      <point x="448" y="181"/>
      <point x="448" y="122" type="qcurve" smooth="yes"/>
      <point x="448" y="65"/>
      <point x="367" y="-22"/>
      <point x="303" y="-22" type="qcurve" smooth="yes"/>
      <point x="240" y="-22"/>
      <point x="158" y="65"/>
    </contour>
    <contour>
      <point x="208" y="1390" type="line" smooth="yes"/>
      <point x="204" y="1458"/>
      <point x="245" y="1546"/>
      <point x="301" y="1547" type="qcurve" smooth="yes"/>
      <point x="357" y="1548"/>
      <point x="402" y="1460"/>
      <point x="399" y="1391" type="qcurve" smooth="yes"/>
      <point x="388" y="1108" type="line"/>
      <point x="363" y="800" type="line"/>
      <point x="349" y="436" type="line"/>
      <point x="255" y="436" type="line"/>
      <point x="242" y="800" type="line"/>
      <point x="219" y="1108" type="line"/>
    </contour>
  </outline>
</glyph>
<glyph name="quotedbl" format="2">
  <advance width="1156"/>
  <unicode hex="0022"/>
  <outline>
    <contour>
      <point x="245" y="964" type="line"/>
      <point x="168" y="1422" type="line"/>
      <point x="168" y="1470"/>
      <point x="230" y="1558"/>
      <point x="293" y="1558" type="qcurve" smooth="yes"/>
      <point x="357" y="1558"/>
      <point x="419" y="1470"/>
      <point x="419" y="1422" type="qcurve"/>
      <point x="339" y="964" type="line"/>
    </contour>
    <contour>
      <point x="815" y="964" type="line"/>
      <point x="737" y="1422" type="line"/>
      <point x="737" y="1470"/>
      <point x="799" y="1558"/>
      <point x="863" y="1558" type="qcurve" smooth="yes"/>
      <point x="926" y="1558"/>
      <point x="988" y="1470"/>
      <point x="988" y="1422" type="qcurve"/>
      <point x="909" y="964" type="line"/>
    </contour>
  </outline>
</glyph>
<glyph name="numbersign" format="2">
  <advance width="1519"/>
  <unicode hex="0023"/>
  <outline>
    <contour>
      <point x="84" y="483" type="line"/>
      <point x="84" y="638" type="line"/>
      <point x="1340" y="638" type="line"/>
      <point x="1340" y="483" type="line"/>
    </contour>
    <contour>
      <point x="179" y="843" type="line"/>
      <point x="179" y="998" type="line"/>
      <point x="1435" y="998" type="line"/>
      <point x="1435" y="843" type="line"/>
    </contour>
    <contour>
      <point x="140" y="8" type="line"/>
      <point x="697" y="1524" type="line"/>
      <point x="795" y="1497" type="line"/>
      <point x="239" y="-19" type="line"/>
    </contour>
    <contour>
      <point x="748" y="8" type="line"/>
      <point x="1305" y="1524" type="line"/>
      <point x="1404" y="1497" type="line"/>
      <point x="847" y="-19" type="line"/>
    </contour>
  </outline>
</glyph>
<glyph name="dollar" format="2">
  <advance width="1503"/>
  <unicode hex="0024"/>
  <outline>
    <contour>
      <point x="56" y="272" type="qcurve"/>
      <point x="198" y="345" type="line"/>
      <point x="270" y="246"/>
      <point x="582" y="122"/>
      <point x="812" y="122" type="qcurve" smooth="yes"/>
      <point x="1035" y="122"/>
      <point x="1286" y="271"/>
      <point x="1286" y="382" type="qcurve" smooth="yes"/>
      <point x="1286" y="519"/>
      <point x="982" y="662"/>
      <point x="721" y="721" type="qcurve" smooth="yes"/>
      <point x="431" y="787"/>
      <point x="225" y="974"/>
      <point x="225" y="1125" type="qcurve" smooth="yes"/>
      <point x="225" y="1284"/>
      <point x="461" y="1501"/>
      <point x="757" y="1501" type="qcurve" smooth="yes"/>
      <point x="936" y="1501"/>
      <point x="1256" y="1436"/>
      <point x="1373" y="1373" type="qcurve"/>
      <point x="1306" y="1267" type="line"/>
      <point x="1222" y="1309"/>
      <point x="957" y="1371"/>
      <point x="780" y="1371" type="qcurve" smooth="yes"/>
      <point x="572" y="1371"/>
      <point x="388" y="1260"/>
      <point x="388" y="1162" type="qcurve" smooth="yes"/>
      <point x="388" y="1058"/>
      <point x="513" y="933"/>
      <point x="824" y="855" type="qcurve" smooth="yes"/>
      <point x="1082" y="792"/>
      <point x="1447" y="609"/>
      <point x="1447" y="431" type="qcurve" smooth="yes"/>
      <point x="1447" y="248"/>
      <point x="1081" y="1"/>
      <point x="788" y="1" type="qcurve" smooth="yes"/>
      <point x="512" y="1"/>
      <point x="161" y="142"/>
    </contour>
    <contour>
      <point x="734" y="-190" type="line"/>
      <point x="734" y="52" type="line"/>
      <point x="754" y="52" type="line"/>
      <point x="754" y="820" type="line"/>
      <point x="878" y="778" type="line"/>
      <point x="878" y="52" type="line"/>
      <point x="900" y="52" type="line"/>
      <point x="900" y="-140" type="line"/>
    </contour>
    <contour>
      <point x="733" y="1610" type="line"/>
      <point x="899" y="1649" type="line"/>
      <point x="899" y="1418" type="line"/>
      <point x="878" y="1418" type="line"/>
      <point x="878" y="778" type="line"/>
      <point x="754" y="820" type="line"/>
      <point x="754" y="1418" type="line"/>
      <point x="733" y="1418" type="line"/>
    </contour>
  </outline>
</glyph>
<glyph name="ampersand" format="2">
  <advance width="2398"/>
  <unicode hex="0026"/>
  <outline>
    <contour>
      <point x="822" y="-28" type="qcurve" smooth="yes"/>
      <point x="390" y="-28"/>
      <point x="55" y="228"/>
      <point x="69" y="374" type="qcurve" smooth="yes"/>
      <point x="79" y="490"/>
      <point x="261" y="764"/>
      <point x="709" y="855" type="qcurve"/>
      <point x="1048" y="910"/>
      <point x="1255" y="1121"/>
      <point x="1255" y="1211" type="qcurve" smooth="yes"/>
      <point x="1255" y="1296"/>
      <point x="1092" y="1408"/>
      <point x="934" y="1408" type="qcurve" smooth="yes"/>
      <point x="783" y="1408"/>
      <point x="596" y="1291"/>
      <point x="596" y="1196" type="qcurve" smooth="yes"/>
      <point x="596" y="1104"/>
      <point x="734" y="947"/>
      <point x="921" y="885" type="qcurve"/>
      <point x="1657" y="272" type="line" smooth="yes"/>
      <point x="1755" y="187"/>
      <point x="1923" y="96"/>
      <point x="2048" y="96" type="qcurve" smooth="yes"/>
      <point x="2151" y="96"/>
      <point x="2262" y="133"/>
      <point x="2315" y="168" type="qcurve"/>
      <point x="2401" y="113" type="line"/>
      <point x="2335" y="44"/>
      <point x="2152" y="-36"/>
      <point x="2013" y="-37" type="qcurve" smooth="yes"/>
      <point x="1857" y="-38"/>
      <point x="1700" y="60"/>
      <point x="1509" y="168" type="qcurve" smooth="yes"/>
      <point x="741" y="818" type="line"/>
      <point x="630" y="858"/>
      <point x="404" y="1046"/>
      <point x="412" y="1185" type="qcurve" smooth="yes"/>
      <point x="420" y="1316"/>
      <point x="643" y="1516"/>
      <point x="899" y="1516" type="qcurve" smooth="yes"/>
      <point x="1167" y="1516"/>
      <point x="1428" y="1345"/>
      <point x="1428" y="1198" type="qcurve" smooth="yes"/>
      <point x="1428" y="1077"/>
      <point x="1055" y="804"/>
      <point x="743" y="767" type="qcurve"/>
      <point x="514" y="703"/>
      <point x="284" y="523"/>
      <point x="274" y="403" type="qcurve" smooth="yes"/>
      <point x="260" y="275"/>
      <point x="547" y="126"/>
      <point x="825" y="126" type="qcurve" smooth="yes"/>
      <point x="1267" y="126"/>
      <point x="2062" y="574"/>
      <point x="2295" y="873" type="qcurve"/>
      <point x="2407" y="858" type="line"/>
      <point x="2210" y="534"/>
      <point x="1302" y="-28"/>
    </contour>
    <contour>
      <point x="1626" y="847" type="line"/>
      <point x="1662" y="902"/>
      <point x="1797" y="978"/>
      <point x="1864" y="978" type="qcurve" smooth="yes"/>
      <point x="1928" y="978"/>
      <point x="2114" y="920"/>
      <point x="2168" y="920" type="qcurve" smooth="yes"/>
      <point x="2209" y="920"/>
      <point x="2263" y="925"/>
      <point x="2304" y="945" type="qcurve"/>
      <point x="2410" y="865" type="line"/>
      <point x="2304" y="758"/>
      <point x="2213" y="744"/>
      <point x="2147" y="744" type="qcurve" smooth="yes"/>
      <point x="2127" y="744"/>
      <point x="1956" y="819"/>
      <point x="1900" y="819" type="qcurve" smooth="yes"/>
      <point x="1842" y="819"/>
      <point x="1747" y="798"/>
      <point x="1715" y="778" type="qcurve"/>
    </contour>
  </outline>
</glyph>
<glyph name="quotesingle" format="2">
  <advance width="587"/>
  <unicode hex="0027"/>
  <outline>
    <contour>
      <point x="255" y="964" type="line"/>
      <point x="168" y="1422" type="line"/>
      <point x="168" y="1470"/>
      <point x="230" y="1558"/>
      <point x="293" y="1558" type="qcurve" smooth="yes"/>
      <point x="357" y="1558"/>
      <point x="419" y="1470"/>
      <point x="419" y="1422" type="qcurve"/>
      <point x="329" y="964" type="line"/>
    </contour>
  </outline>
</glyph>
<glyph name="parenleft" format="2">
  <advance width="824"/>
  <unicode hex="0028"/>
  <outline>
    <contour>
      <point x="68" y="1359" type="qcurve" smooth="yes"/>
      <point x="68" y="1410"/>
      <point x="503" y="1506"/>
      <point x="745" y="1526" type="qcurve"/>
      <point x="804" y="1514" type="line"/>
      <point x="591" y="1489"/>
      <point x="266" y="1404"/>
      <point x="266" y="1359" type="qcurve" smooth="yes"/>
      <point x="266" y="1314"/>
      <point x="586" y="1230"/>
      <point x="804" y="1208" type="qcurve"/>
      <point x="745" y="1196" type="line"/>
      <point x="503" y="1217"/>
      <point x="68" y="1312"/>
    </contour>
  </outline>
</glyph>
<glyph name="parenright" format="2">
  <advance width="824"/>
  <unicode hex="0029"/>
  <outline>
    <contour>
      <point x="756" y="1359" type="qcurve" smooth="yes"/>
      <point x="756" y="1312"/>
      <point x="321" y="1217"/>
      <point x="78" y="1196" type="qcurve"/>
      <point x="20" y="1295" type="line"/>
      <point x="238" y="1302"/>
      <point x="558" y="1341"/>
      <point x="558" y="1359" type="qcurve" smooth="yes"/>
      <point x="558" y="1376"/>
      <point x="232" y="1416"/>
      <point x="20" y="1428" type="qcurve"/>
      <point x="78" y="1526" type="line"/>
      <point x="321" y="1506"/>
      <point x="756" y="1410"/>
    </contour>
  </outline>
</glyph>
<glyph name="plus" format="2">
  <advance width="1485"/>
  <unicode hex="002B"/>
  <outline>
    <contour>
      <point x="80" y="555" type="line"/>
      <point x="80" y="709" type="line"/>
      <point x="1405" y="709" type="line"/>
      <point x="1405" y="555" type="line"/>
    </contour>
    <contour>
      <point x="661" y="-30" type="line"/>
      <point x="661" y="1294" type="line"/>
      <point x="823" y="1294" type="line"/>
      <point x="823" y="-30" type="line"/>
    </contour>
  </outline>
</glyph>
<glyph name="comma" format="2">
  <advance width="586"/>
  <unicode hex="002C"/>
  <outline>
    <contour>
      <point x="134" y="-220" type="line"/>
      <point x="172" y="-191"/>
      <point x="277" y="-80"/>
      <point x="292" y="-13" type="qcurve"/>
      <point x="221" y="-9"/>
      <point x="148" y="63"/>
      <point x="148" y="122" type="qcurve" smooth="yes"/>
      <point x="148" y="181"/>
      <point x="230" y="267"/>
      <point x="293" y="267" type="qcurve" smooth="yes"/>
      <point x="353" y="267"/>
      <point x="438" y="191"/>
      <point x="438" y="113" type="qcurve" smooth="yes"/>
      <point x="438" y="-10"/>
      <point x="282" y="-218"/>
      <point x="184" y="-277" type="qcurve"/>
    </contour>
  </outline>
</glyph>
<glyph name="hyphen" format="2">
  <advance width="1234"/>
  <unicode hex="002D"/>
  <outline>
    <contour>
      <point x="80" y="555" type="line"/>
      <point x="80" y="709" type="line"/>
      <point x="618" y="705" type="line"/>
      <point x="1154" y="709" type="line"/>
      <point x="1154" y="555" type="line"/>
      <point x="618" y="559" type="line"/>
    </contour>
  </outline>
</glyph>
<glyph name="period" format="2">
  <advance width="586"/>
  <unicode hex="002E"/>
  <outline>
    <contour>
      <point x="148" y="122" type="qcurve" smooth="yes"/>
      <point x="148" y="181"/>
      <point x="230" y="267"/>
      <point x="293" y="267" type="qcurve" smooth="yes"/>
      <point x="357" y="267"/>
      <point x="438" y="181"/>
      <point x="438" y="122" type="qcurve" smooth="yes"/>
      <point x="438" y="65"/>
      <point x="357" y="-22"/>
      <point x="293" y="-22" type="qcurve"/>
      <point x="230" y="-22"/>
      <point x="148" y="65"/>
    </contour>
  </outline>
</glyph>
<glyph name="two" format="2">
  <advance width="1364"/>
  <unicode hex="0032"/>
  <outline>
    <contour>
      <point x="32" y="0" type="line"/>
      <point x="32" y="124" type="line"/>
      <point x="71" y="248"/>
      <point x="344" y="498"/>
      <point x="608" y="638" type="qcurve" smooth="yes"/>
      <point x="882" y="784"/>
      <point x="1096" y="992"/>
      <point x="1096" y="1133" type="qcurve" smooth="yes"/>
      <point x="1096" y="1253"/>
      <point x="888" y="1389"/>
      <point x="708" y="1389" type="qcurve" smooth="yes"/>
      <point x="539" y="1389"/>
      <point x="219" y="1312"/>
      <point x="98" y="1206" type="qcurve"/>
      <point x="22" y="1294" type="line"/>
      <point x="89" y="1380"/>
      <point x="420" y="1520"/>
      <point x="687" y="1520" type="qcurve" smooth="yes"/>
      <point x="946" y="1520"/>
      <point x="1292" y="1321"/>
      <point x="1292" y="1135" type="qcurve" smooth="yes"/>
      <point x="1292" y="920"/>
      <point x="867" y="630"/>
      <point x="703" y="550" type="qcurve" smooth="yes"/>
      <point x="507" y="453"/>
      <point x="205" y="265"/>
      <point x="177" y="180" type="qcurve"/>
      <point x="187" y="169" type="line"/>
      <point x="1354" y="169" type="line"/>
      <point x="1354" y="0" type="line"/>
    </contour>
  </outline>
</glyph>
<glyph name="seven" format="2">
  <advance width="1373"/>
  <unicode hex="0037"/>
  <outline>
    <contour>
      <point x="17" y="945" type="line"/>
      <point x="46" y="1500" type="line"/>
      <point x="1322" y="1500" type="line"/>
      <point x="1322" y="1407" type="line"/>
      <point x="841" y="625" type="line"/>
      <point x="522" y="-13" type="line"/>
      <point x="315" y="-13" type="line"/>
      <point x="315" y="60" type="line"/>
      <point x="722" y="670" type="line"/>
      <point x="1156" y="1306" type="line"/>
      <point x="1126" y="1329" type="line"/>
      <point x="182" y="1329" type="line"/>
      <point x="139" y="945" type="line"/>
    </contour>
  </outline>
</glyph>
<glyph name="colon" format="2">
  <advance width="666"/>
  <unicode hex="003A"/>
  <outline>
    <contour>
      <point x="188" y="122" type="qcurve" smooth="yes"/>
      <point x="188" y="181"/>
      <point x="270" y="267"/>
      <point x="333" y="267" type="qcurve" smooth="yes"/>
      <point x="397" y="267"/>
      <point x="478" y="181"/>
      <point x="478" y="122" type="qcurve" smooth="yes"/>
      <point x="478" y="65"/>
      <point x="397" y="-22"/>
      <point x="333" y="-22" type="qcurve" smooth="yes"/>
      <point x="270" y="-22"/>
      <point x="188" y="65"/>
    </contour>
    <contour>
      <point x="188" y="893" type="qcurve" smooth="yes"/>
      <point x="188" y="951"/>
      <point x="270" y="1038"/>
      <point x="333" y="1038" type="qcurve" smooth="yes"/>
      <point x="397" y="1038"/>
      <point x="478" y="951"/>
      <point x="478" y="893" type="qcurve" smooth="yes"/>
      <point x="478" y="836"/>
      <point x="397" y="749"/>
      <point x="333" y="749" type="qcurve" smooth="yes"/>
      <point x="270" y="749"/>
      <point x="188" y="836"/>
    </contour>
  </outline>
</glyph>
<glyph name="semicolon" format="2">
  <advance width="666"/>
  <unicode hex="003B"/>
  <outline>
    <contour>
      <point x="181" y="-228" type="line"/>
      <point x="221" y="-198"/>
      <point x="325" y="-80"/>
      <point x="340" y="-13" type="qcurve"/>
      <point x="268" y="-13"/>
      <point x="188" y="63"/>
      <point x="188" y="122" type="qcurve" smooth="yes"/>
      <point x="188" y="181"/>
      <point x="270" y="267"/>
      <point x="333" y="267" type="qcurve" smooth="yes"/>
      <point x="393" y="267"/>
      <point x="478" y="191"/>
      <point x="478" y="113" type="qcurve" smooth="yes"/>
      <point x="478" y="-10"/>
      <point x="322" y="-218"/>
      <point x="224" y="-277" type="qcurve"/>
    </contour>
    <contour>
      <point x="188" y="893" type="qcurve" smooth="yes"/>
      <point x="188" y="951"/>
      <point x="270" y="1038"/>
      <point x="333" y="1038" type="qcurve" smooth="yes"/>
      <point x="397" y="1038"/>
      <point x="478" y="951"/>
      <point x="478" y="893" type="qcurve" smooth="yes"/>
      <point x="478" y="836"/>
      <point x="397" y="749"/>
      <point x="333" y="749" type="qcurve" smooth="yes"/>
      <point x="270" y="749"/>
      <point x="188" y="836"/>
    </contour>
  </outline>
</glyph>
<glyph name="less" format="2">
  <advance width="1466"/>
  <unicode hex="003C"/>
  <outline>
    <contour>
      <point x="169" y="634" type="qcurve"/>
      <point x="172" y="638"/>
      <point x="1050" y="1050"/>
      <point x="1130" y="1081" type="qcurve" smooth="yes"/>
      <point x="1207" y="1112"/>
      <point x="1274" y="1002"/>
      <point x="1200" y="968" type="qcurve" smooth="yes"/>
      <point x="1030" y="890"/>
      <point x="521" y="637"/>
      <point x="517" y="637" type="qcurve"/>
      <point x="521" y="637"/>
      <point x="1020" y="401"/>
      <point x="1192" y="324" type="qcurve" smooth="yes"/>
      <point x="1265" y="289"/>
      <point x="1212" y="176"/>
      <point x="1132" y="203" type="qcurve" smooth="yes"/>
      <point x="1049" y="230"/>
      <point x="171" y="630"/>
    </contour>
  </outline>
</glyph>
<glyph name="equal" format="2">
  <advance width="1593"/>
  <unicode hex="003D"/>
  <outline>
    <contour>
      <point x="110" y="333" type="line"/>
      <point x="110" y="507" type="line"/>
      <point x="793" y="503" type="line"/>
      <point x="1483" y="507" type="line"/>
      <point x="1483" y="333" type="line"/>
      <point x="793" y="337" type="line"/>
    </contour>
    <contour>
      <point x="110" y="735" type="line"/>
      <point x="110" y="909" type="line"/>
      <point x="793" y="905" type="line"/>
      <point x="1483" y="909" type="line"/>
      <point x="1483" y="735" type="line"/>
      <point x="793" y="739" type="line"/>
    </contour>
  </outline>
</glyph>
<glyph name="greater" format="2">
  <advance width="1466"/>
  <unicode hex="003E"/>
  <outline>
    <contour>
      <point x="266" y="282" type="qcurve" smooth="yes"/>
      <point x="436" y="358"/>
      <point x="945" y="612"/>
      <point x="949" y="612" type="qcurve"/>
      <point x="945" y="612"/>
      <point x="446" y="849"/>
      <point x="274" y="925" type="qcurve" smooth="yes"/>
      <point x="201" y="960"/>
      <point x="254" y="1073"/>
      <point x="334" y="1046" type="qcurve" smooth="yes"/>
      <point x="418" y="1019"/>
      <point x="1295" y="619"/>
      <point x="1297" y="615" type="qcurve"/>
      <point x="1294" y="611"/>
      <point x="416" y="199"/>
      <point x="336" y="168" type="qcurve" smooth="yes"/>
      <point x="259" y="138"/>
      <point x="192" y="249"/>
    </contour>
  </outline>
</glyph>
<glyph name="question" format="2">
  <advance width="1282"/>
  <unicode hex="003F"/>
  <outline>
    <contour>
      <point x="334" y="122" type="qcurve" smooth="yes"/>
      <point x="334" y="181"/>
      <point x="416" y="267"/>
      <point x="479" y="267" type="qcurve" smooth="yes"/>
      <point x="543" y="267"/>
      <point x="624" y="181"/>
      <point x="624" y="122" type="qcurve" smooth="yes"/>
      <point x="624" y="65"/>
      <point x="543" y="-22"/>
      <point x="479" y="-22" type="qcurve" smooth="yes"/>
      <point x="416" y="-22"/>
      <point x="334" y="65"/>
    </contour>
    <contour>
      <point x="33" y="1233" type="qcurve" smooth="yes"/>
      <point x="33" y="1376"/>
      <point x="326" y="1540"/>
      <point x="585" y="1540" type="qcurve" smooth="yes"/>
      <point x="835" y="1540"/>
      <point x="1147" y="1348"/>
      <point x="1147" y="1163" type="qcurve" smooth="yes"/>
      <point x="1147" y="970"/>
      <point x="914" y="808"/>
      <point x="744" y="732" type="qcurve" smooth="yes"/>
      <point x="645" y="686"/>
      <point x="515" y="604"/>
      <point x="516" y="523" type="qcurve" smooth="yes"/>
      <point x="516" y="436" type="line"/>
      <point x="416" y="436" type="line"/>
      <point x="401" y="520" type="line" smooth="yes"/>
      <point x="388" y="595"/>
      <point x="478" y="755"/>
      <point x="629" y="826" type="qcurve" smooth="yes"/>
      <point x="762" y="888"/>
      <point x="956" y="1000"/>
      <point x="956" y="1141" type="qcurve" smooth="yes"/>
      <point x="956" y="1276"/>
      <point x="730" y="1429"/>
      <point x="547" y="1429" type="qcurve" smooth="yes"/>
      <point x="373" y="1429"/>
      <point x="179" y="1342"/>
      <point x="179" y="1289" type="qcurve" smooth="yes"/>
      <point x="179" y="1260"/>
      <point x="300" y="1204"/>
      <point x="302" y="1154" type="qcurve" smooth="yes"/>
      <point x="305" y="1114"/>
      <point x="244" y="1050"/>
      <point x="183" y="1050" type="qcurve" smooth="yes"/>
      <point x="117" y="1050"/>
      <point x="33" y="1143"/>
    </contour>
  </outline>
</glyph>
<glyph name="at" format="2">
  <advance width="2464"/>
  <unicode hex="0040"/>
  <outline>
    <contour>
      <point x="80" y="725" type="qcurve" smooth="yes"/>
      <point x="80" y="1058"/>
      <point x="701" y="1520"/>
      <point x="1225" y="1520" type="qcurve" smooth="yes"/>
      <point x="1717" y="1520"/>
      <point x="2349" y="1157"/>
      <point x="2349" y="863" type="qcurve" smooth="yes"/>
      <point x="2349" y="630"/>
      <point x="2190" y="349"/>
      <point x="1893" y="349" type="qcurve" smooth="yes"/>
      <point x="1802" y="349"/>
      <point x="1689" y="411"/>
      <point x="1668" y="461" type="qcurve"/>
      <point x="1585" y="400"/>
      <point x="1264" y="317"/>
      <point x="1096" y="317" type="qcurve" smooth="yes"/>
      <point x="895" y="317"/>
      <point x="649" y="453"/>
      <point x="649" y="544" type="qcurve" smooth="yes"/>
      <point x="649" y="662"/>
      <point x="1112" y="867"/>
      <point x="1707" y="871" type="qcurve"/>
      <point x="1720" y="790" type="line"/>
      <point x="1302" y="780"/>
      <point x="814" y="667"/>
      <point x="814" y="561" type="qcurve" smooth="yes"/>
      <point x="814" y="504"/>
      <point x="1009" y="437"/>
      <point x="1130" y="437" type="qcurve" smooth="yes"/>
      <point x="1273" y="437"/>
      <point x="1572" y="515"/>
      <point x="1635" y="557" type="qcurve"/>
      <point x="1640" y="863" type="line" smooth="yes"/>
      <point x="1643" y="1010"/>
      <point x="1415" y="1112"/>
      <point x="1215" y="1112" type="qcurve" smooth="yes"/>
      <point x="1046" y="1112"/>
      <point x="896" y="1068"/>
      <point x="879" y="1046" type="qcurve"/>
      <point x="898" y="1027"/>
      <point x="921" y="987"/>
      <point x="923" y="970" type="qcurve" smooth="yes"/>
      <point x="930" y="934"/>
      <point x="888" y="884"/>
      <point x="849" y="884" type="qcurve" smooth="yes"/>
      <point x="808" y="884"/>
      <point x="759" y="954"/>
      <point x="759" y="1012" type="qcurve" smooth="yes"/>
      <point x="759" y="1111"/>
      <point x="1031" y="1213"/>
      <point x="1261" y="1213" type="qcurve" smooth="yes"/>
      <point x="1559" y="1213"/>
      <point x="1790" y="1042"/>
      <point x="1790" y="854" type="qcurve" smooth="yes"/>
      <point x="1796" y="521" type="line" smooth="yes"/>
      <point x="1796" y="489"/>
      <point x="1848" y="460"/>
      <point x="1902" y="460" type="qcurve" smooth="yes"/>
      <point x="2105" y="460"/>
      <point x="2208" y="667"/>
      <point x="2208" y="858" type="qcurve" smooth="yes"/>
      <point x="2208" y="1092"/>
      <point x="1696" y="1384"/>
      <point x="1224" y="1384" type="qcurve" smooth="yes"/>
      <point x="747" y="1384"/>
      <point x="228" y="1023"/>
      <point x="228" y="737" type="qcurve" smooth="yes"/>
      <point x="228" y="471"/>
      <point x="782" y="99"/>
      <point x="1223" y="99" type="qcurve" smooth="yes"/>
      <point x="1437" y="99"/>
      <point x="1711" y="163"/>
      <point x="1781" y="195" type="qcurve"/>
      <point x="1844" y="108" type="line"/>
      <point x="1760" y="57"/>
      <point x="1442" y="-30"/>
      <point x="1218" y="-30" type="qcurve" smooth="yes"/>
      <point x="730" y="-30"/>
      <point x="80" y="399"/>
    </contour>
  </outline>
</glyph>
<glyph name="B" format="2">
  <advance width="1525"/>
  <unicode hex="0042"/>
  <outline>
    <contour>
      <point x="42" y="0" type="line"/>
      <point x="42" y="100" type="line"/>
      <point x="290" y="136" type="line"/>
      <point x="294" y="784" type="line"/>
      <point x="290" y="1352" type="line"/>
      <point x="42" y="1386" type="line"/>
      <point x="42" y="1500" type="line"/>
      <point x="794" y="1500" type="line" smooth="yes"/>
      <point x="1066" y="1500"/>
      <point x="1324" y="1315"/>
      <point x="1324" y="1172" type="qcurve" smooth="yes"/>
      <point x="1324" y="1037"/>
      <point x="1182" y="854"/>
      <point x="1057" y="831" type="qcurve"/>
      <point x="1057" y="821" type="line"/>
      <point x="1223" y="796"/>
      <point x="1459" y="602"/>
      <point x="1459" y="433" type="qcurve" smooth="yes"/>
      <point x="1459" y="246"/>
      <point x="1119" y="0"/>
      <point x="817" y="0" type="qcurve" smooth="yes"/>
    </contour>
    <contour>
      <point x="474" y="135" type="line"/>
      <point x="507" y="115" type="line"/>
      <point x="734" y="115" type="line" smooth="yes"/>
      <point x="1008" y="115"/>
      <point x="1269" y="271"/>
      <point x="1269" y="440" type="qcurve" smooth="yes"/>
      <point x="1269" y="584"/>
      <point x="1042" y="738"/>
      <point x="832" y="738" type="qcurve" smooth="yes"/>
      <point x="483" y="738" type="line"/>
      <point x="474" y="724" type="line"/>
    </contour>
    <contour>
      <point x="473" y="866" type="line"/>
      <point x="482" y="852" type="line"/>
      <point x="718" y="852" type="line" smooth="yes"/>
      <point x="927" y="852"/>
      <point x="1141" y="991"/>
      <point x="1141" y="1129" type="qcurve" smooth="yes"/>
      <point x="1141" y="1255"/>
      <point x="933" y="1370"/>
      <point x="733" y="1370" type="qcurve" smooth="yes"/>
      <point x="505" y="1370" type="line"/>
      <point x="476" y="1352" type="line"/>
    </contour>
  </outline>
</glyph>
<glyph name="C" format="2">
  <advance width="1855"/>
  <unicode hex="0043"/>
  <anchor x="989" y="0" name="bottom"/>
  <anchor x="990" y="1500" name="top"/>
  <outline>
    <contour>
      <point x="80" y="728" type="qcurve" smooth="yes"/>
      <point x="80" y="1062"/>
      <point x="582" y="1520"/>
      <point x="1010" y="1520" type="qcurve" smooth="yes"/>
      <point x="1181" y="1520"/>
      <point x="1437" y="1458"/>
      <point x="1507" y="1422" type="qcurve"/>
      <point x="1550" y="1500" type="line"/>
      <point x="1655" y="1500" type="line"/>
      <point x="1655" y="1031" type="line"/>
      <point x="1525" y="1031" type="line"/>
      <point x="1475" y="1199" type="line" smooth="yes"/>
      <point x="1447" y="1296"/>
      <point x="1223" y="1392"/>
      <point x="1053" y="1392" type="qcurve" smooth="yes"/>
      <point x="699" y="1392"/>
      <point x="270" y="1060"/>
      <point x="273" y="740" type="qcurve" smooth="yes"/>
      <point x="275" y="442"/>
      <point x="689" y="114"/>
      <point x="1033" y="114" type="qcurve" smooth="yes"/>
      <point x="1288" y="114"/>
      <point x="1602" y="235"/>
      <point x="1689" y="328" type="qcurve"/>
      <point x="1815" y="245" type="line"/>
      <point x="1678" y="110"/>
      <point x="1269" y="-30"/>
      <point x="1038" y="-30" type="qcurve" smooth="yes"/>
      <point x="592" y="-30"/>
      <point x="80" y="371"/>
    </contour>
  </outline>
</glyph>
<glyph name="L" format="2">
  <advance width="1590"/>
  <unicode hex="004C"/>
  <anchor x="882" y="0" name="bottom"/>
  <anchor x="1105" y="750" name="centerright"/>
  <anchor x="809" y="1500" name="top"/>
  <anchor x="961" y="1001" name="topright"/>
  <anchor x="380" y="750" name="center"/>
  <outline>
    <contour>
      <point x="42" y="0" type="line"/>
      <point x="42" y="100" type="line"/>
      <point x="290" y="132" type="line"/>
      <point x="292" y="754" type="line"/>
      <point x="290" y="1352" type="line"/>
      <point x="42" y="1386" type="line"/>
      <point x="42" y="1500" type="line"/>
      <point x="745" y="1500" type="line"/>
      <point x="745" y="1386" type="line"/>
      <point x="474" y="1352" type="line"/>
      <point x="472" y="754" type="line"/>
      <point x="474" y="135" type="line"/>
      <point x="514" y="108" type="line"/>
      <point x="1373" y="108" type="line"/>
      <point x="1459" y="418" type="line"/>
      <point x="1595" y="418" type="line"/>
      <point x="1544" y="0" type="line"/>
    </contour>
  </outline>
</glyph>
<glyph name="M" format="2">
  <advance width="2717"/>
  <unicode hex="004D"/>
  <anchor x="1337" y="0" name="bottom"/>
  <anchor x="1370" y="1500" name="top"/>
  <outline>
    <contour>
      <point x="42" y="0" type="line"/>
      <point x="42" y="100" type="line"/>
      <point x="290" y="135" type="line"/>
      <point x="292" y="754" type="line"/>
      <point x="290" y="1352" type="line"/>
      <point x="42" y="1386" type="line"/>
      <point x="42" y="1500" type="line"/>
      <point x="517" y="1500" type="line"/>
      <point x="953" y="808" type="line"/>
      <point x="1307" y="211" type="line"/>
      <point x="1370" y="97" type="line"/>
      <point x="1380" y="97" type="line"/>
      <point x="1445" y="211" type="line"/>
      <point x="1781" y="803" type="line"/>
      <point x="2194" y="1500" type="line"/>
      <point x="2675" y="1500" type="line"/>
      <point x="2675" y="1386" type="line"/>
      <point x="2427" y="1352" type="line"/>
      <point x="2423" y="754" type="line"/>
      <point x="2427" y="135" type="line"/>
      <point x="2675" y="100" type="line"/>
      <point x="2675" y="0" type="line"/>
      <point x="1965" y="0" type="line"/>
      <point x="1965" y="100" type="line"/>
      <point x="2243" y="135" type="line"/>
      <point x="2245" y="754" type="line"/>
      <point x="2243" y="1210" type="line"/>
      <point x="2247" y="1329" type="line"/>
      <point x="2237" y="1331" type="line"/>
      <point x="2178" y="1224" type="line"/>
      <point x="1889" y="748" type="line"/>
      <point x="1415" y="-8" type="line"/>
      <point x="1230" y="-8" type="line"/>
      <point x="769" y="741" type="line"/>
      <point x="477" y="1227" type="line"/>
      <point x="416" y="1334" type="line"/>
      <point x="406" y="1330" type="line"/>
      <point x="411" y="1213" type="line"/>
      <point x="411" y="754" type="line"/>
      <point x="413" y="135" type="line"/>
      <point x="671" y="100" type="line"/>
      <point x="671" y="0" type="line"/>
    </contour>
  </outline>
</glyph>
<glyph name="N" format="2">
  <advance width="1985"/>
  <unicode hex="004E"/>
  <anchor x="961" y="0" name="bottom"/>
  <anchor x="961" y="1500" name="top"/>
  <outline>
    <contour>
      <point x="42" y="0" type="line"/>
      <point x="42" y="100" type="line"/>
      <point x="290" y="135" type="line"/>
      <point x="292" y="754" type="line"/>
      <point x="290" y="1352" type="line"/>
      <point x="42" y="1386" type="line"/>
      <point x="42" y="1500" type="line"/>
      <point x="513" y="1500" type="line"/>
      <point x="1081" y="871" type="line"/>
      <point x="1510" y="345" type="line"/>
      <point x="1591" y="239" type="line"/>
      <point x="1600" y="242" type="line"/>
      <point x="1596" y="363" type="line"/>
      <point x="1597" y="754" type="line"/>
      <point x="1595" y="1352" type="line"/>
      <point x="1327" y="1386" type="line"/>
      <point x="1327" y="1500" type="line"/>
      <point x="1963" y="1500" type="line"/>
      <point x="1963" y="1386" type="line"/>
      <point x="1715" y="1352" type="line"/>
      <point x="1713" y="754" type="line"/>
      <point x="1709" y="0" type="line"/>
      <point x="1582" y="0" type="line"/>
      <point x="963" y="734" type="line"/>
      <point x="497" y="1284" type="line"/>
      <point x="412" y="1392" type="line"/>
      <point x="403" y="1389" type="line"/>
      <point x="410" y="1269" type="line"/>
      <point x="408" y="754" type="line"/>
      <point x="410" y="135" type="line"/>
      <point x="668" y="100" type="line"/>
      <point x="668" y="0" type="line"/>
    </contour>
  </outline>
</glyph>
<glyph name="O" format="2">
  <advance width="2097"/>
  <unicode hex="004F"/>
  <anchor x="1048" y="0" name="bottom"/>
  <anchor x="1048" y="750" name="center"/>
  <anchor x="1335" y="0" name="ogonek"/>
  <anchor x="1048" y="1500" name="top"/>
  <anchor x="1281" y="1500" name="topright"/>
  <anchor x="176" y="1500" name="tonos"/>
  <outline>
    <contour>
      <point x="80" y="737" type="qcurve" smooth="yes"/>
      <point x="80" y="1068"/>
      <point x="614" y="1520"/>
      <point x="1048" y="1520" type="qcurve" smooth="yes"/>
      <point x="1483" y="1520"/>
      <point x="2017" y="1097"/>
      <point x="2017" y="752" type="qcurve" smooth="yes"/>
      <point x="2017" y="423"/>
      <point x="1487" y="-31"/>
      <point x="1052" y="-31" type="qcurve" smooth="yes"/>
      <point x="626" y="-31"/>
      <point x="80" y="396"/>
    </contour>
    <contour>
      <point x="275" y="771" type="qcurve" smooth="yes"/>
      <point x="275" y="478"/>
      <point x="707" y="101"/>
      <point x="1050" y="101" type="qcurve" smooth="yes"/>
      <point x="1428" y="101"/>
      <point x="1822" y="436"/>
      <point x="1822" y="745" type="qcurve" smooth="yes"/>
      <point x="1822" y="1020"/>
      <point x="1399" y="1380"/>
      <point x="1050" y="1380" type="qcurve" smooth="yes"/>
      <point x="673" y="1380"/>
      <point x="275" y="1053"/>
    </contour>
  </outline>
</glyph>
<glyph name="W" format="2">
  <advance width="2724"/>
  <unicode hex="0057"/>
  <anchor x="1318" y="0" name="bottom"/>
  <anchor x="1318" y="1500" name="top"/>
  <outline>
    <contour>
      <point x="791" y="-8" type="line"/>
      <point x="487" y="623" type="line"/>
      <point x="138" y="1347" type="line"/>
      <point x="-70" y="1386" type="line"/>
      <point x="-70" y="1500" type="line"/>
      <point x="568" y="1500" type="line"/>
      <point x="568" y="1386" type="line"/>
      <point x="340" y="1345" type="line"/>
      <point x="650" y="684" type="line"/>
      <point x="842" y="313" type="line"/>
      <point x="891" y="199" type="line"/>
      <point x="903" y="199" type="line"/>
      <point x="945" y="313" type="line"/>
      <point x="1102" y="688" type="line"/>
      <point x="1271" y="1080" type="line"/>
      <point x="1153" y="1355" type="line"/>
      <point x="945" y="1394" type="line"/>
      <point x="945" y="1500" type="line"/>
      <point x="1563" y="1500" type="line"/>
      <point x="1563" y="1394" type="line"/>
      <point x="1355" y="1353" type="line"/>
      <point x="1571" y="842" type="line"/>
      <point x="1789" y="313" type="line"/>
      <point x="1830" y="199" type="line"/>
      <point x="1844" y="199" type="line"/>
      <point x="1894" y="313" type="line"/>
      <point x="2148" y="803" type="line"/>
      <point x="2435" y="1352" type="line"/>
      <point x="2198" y="1386" type="line"/>
      <point x="2198" y="1500" type="line"/>
      <point x="2814" y="1500" type="line"/>
      <point x="2814" y="1386" type="line"/>
      <point x="2586" y="1347" type="line"/>
      <point x="2264" y="760" type="line"/>
      <point x="1848" y="-8" type="line"/>
      <point x="1723" y="-8" type="line"/>
      <point x="1383" y="812" type="line"/>
      <point x="1338" y="928" type="line"/>
      <point x="1328" y="928" type="line"/>
      <point x="1281" y="812" type="line"/>
      <point x="910" y="-8" type="line"/>
    </contour>
  </outline>
</glyph>
<glyph name="X" format="2">
  <advance width="1695"/>
  <unicode hex="0058"/>
  <anchor x="835" y="0" name="bottom"/>
  <anchor x="847" y="1500" name="top"/>
  <outline>
    <contour>
      <point x="-60" y="0" type="line"/>
      <point x="-60" y="100" type="line"/>
      <point x="148" y="135" type="line"/>
      <point x="747" y="768" type="line"/>
      <point x="188" y="1355" type="line"/>
      <point x="-10" y="1386" type="line"/>
      <point x="-10" y="1500" type="line"/>
      <point x="610" y="1500" type="line"/>
      <point x="610" y="1386" type="line"/>
      <point x="397" y="1353" type="line"/>
      <point x="748" y="979" type="line"/>
      <point x="854" y="865" type="line"/>
      <point x="864" y="865" type="line"/>
      <point x="963" y="979" type="line"/>
      <point x="1306" y="1360" type="line"/>
      <point x="1089" y="1386" type="line"/>
      <point x="1089" y="1500" type="line"/>
      <point x="1675" y="1500" type="line"/>
      <point x="1675" y="1386" type="line"/>
      <point x="1457" y="1355" type="line"/>
      <point x="932" y="793" type="line"/>
      <point x="1567" y="135" type="line"/>
      <point x="1775" y="100" type="line"/>
      <point x="1775" y="0" type="line"/>
      <point x="1145" y="0" type="line"/>
      <point x="1145" y="100" type="line"/>
      <point x="1358" y="135" type="line"/>
      <point x="929" y="583" type="line"/>
      <point x="825" y="697" type="line"/>
      <point x="815" y="697" type="line"/>
      <point x="715" y="583" type="line"/>
      <point x="299" y="130" type="line"/>
      <point x="516" y="100" type="line"/>
      <point x="516" y="0" type="line"/>
    </contour>
  </outline>
</glyph>
<glyph name="h" format="2">
  <advance width="1566"/>
  <unicode hex="0068"/>
  <outline>
    <contour>
      <point x="26" y="0" type="line"/>
      <point x="26" y="84" type="line"/>
      <point x="218" y="119" type="line"/>
      <point x="220" y="525" type="line"/>
      <point x="218" y="1372" type="line"/>
      <point x="2" y="1402" type="line"/>
      <point x="2" y="1500" type="line"/>
      <point x="332" y="1534" type="line"/>
      <point x="364" y="1534" type="line"/>
      <point x="392" y="1502" type="line"/>
      <point x="391" y="851" type="line"/>
      <point x="491" y="937"/>
      <point x="744" y="1020"/>
      <point x="882" y="1020" type="qcurve" smooth="yes"/>
      <point x="1108" y="1020"/>
      <point x="1352" y="871"/>
      <point x="1352" y="697" type="qcurve" smooth="yes"/>
      <point x="1352" y="667"/>
      <point x="1347" y="525"/>
      <point x="1347" y="525" type="qcurve"/>
      <point x="1352" y="119" type="line"/>
      <point x="1550" y="84" type="line"/>
      <point x="1550" y="0" type="line"/>
      <point x="970" y="0" type="line"/>
      <point x="970" y="84" type="line"/>
      <point x="1178" y="119" type="line"/>
      <point x="1180" y="525" type="line"/>
      <point x="1180" y="657" type="line" smooth="yes"/>
      <point x="1180" y="794"/>
      <point x="986" y="876"/>
      <point x="824" y="876" type="qcurve" smooth="yes"/>
      <point x="712" y="876"/>
      <point x="486" y="807"/>
      <point x="390" y="723" type="qcurve"/>
      <point x="390" y="525" type="line"/>
      <point x="392" y="119" type="line"/>
      <point x="580" y="84" type="line"/>
      <point x="580" y="0" type="line"/>
    </contour>
  </outline>
</glyph>
<glyph name="s" format="2">
  <advance width="1247"/>
  <unicode hex="0073"/>
  <anchor x="468" y="0" name="bottom"/>
  <anchor x="416" y="1000" name="top"/>
  <outline>
    <contour>
      <point x="51" y="0" type="line"/>
      <point x="51" y="339" type="line"/>
      <point x="162" y="339" type="line"/>
      <point x="182" y="280" type="line" smooth="yes"/>
      <point x="209" y="194"/>
      <point x="458" y="89"/>
      <point x="657" y="89" type="qcurve" smooth="yes"/>
      <point x="829" y="89"/>
      <point x="1045" y="176"/>
      <point x="1045" y="259" type="qcurve" smooth="yes"/>
      <point x="1045" y="342"/>
      <point x="823" y="424"/>
      <point x="539" y="472" type="qcurve" smooth="yes"/>
      <point x="255" y="520"/>
      <point x="89" y="648"/>
      <point x="89" y="757" type="qcurve" smooth="yes"/>
      <point x="89" y="877"/>
      <point x="347" y="1020"/>
      <point x="581" y="1020" type="qcurve" smooth="yes"/>
      <point x="699" y="1020"/>
      <point x="947" y="987"/>
      <point x="1005" y="957" type="qcurve"/>
      <point x="1021" y="998" type="line"/>
      <point x="1116" y="998" type="line"/>
      <point x="1116" y="702" type="line"/>
      <point x="1006" y="702" type="line"/>
      <point x="983" y="795" type="line" smooth="yes"/>
      <point x="973" y="839"/>
      <point x="747" y="909"/>
      <point x="605" y="909" type="qcurve" smooth="yes"/>
      <point x="400" y="909"/>
      <point x="246" y="847"/>
      <point x="246" y="789" type="qcurve" smooth="yes"/>
      <point x="246" y="727"/>
      <point x="397" y="657"/>
      <point x="727" y="613" type="qcurve" smooth="yes"/>
      <point x="994" y="579"/>
      <point x="1199" y="432"/>
      <point x="1199" y="287" type="qcurve" smooth="yes"/>
      <point x="1199" y="150"/>
      <point x="879" y="-21"/>
      <point x="649" y="-21" type="qcurve" smooth="yes"/>
      <point x="440" y="-21"/>
      <point x="239" y="23"/>
      <point x="185" y="73" type="qcurve"/>
      <point x="146" y="0" type="line"/>
    </contour>
  </outline>
</glyph>
<glyph name="u" format="2">
  <advance width="1547"/>
  <unicode hex="0075"/>
  <anchor x="727" y="0" name="bottom"/>
  <anchor x="1403" y="20" name="ogonek"/>
  <anchor x="727" y="998" name="top"/>
  <anchor x="1308" y="998" name="topright"/>
  <outline>
    <contour>
      <point x="6" y="866" type="line"/>
      <point x="6" y="964" type="line"/>
      <point x="318" y="998" type="line"/>
      <point x="353" y="998" type="line"/>
      <point x="378" y="962" type="line"/>
      <point x="376" y="473" type="line"/>
      <point x="376" y="288" type="line" smooth="yes"/>
      <point x="376" y="222"/>
      <point x="540" y="113"/>
      <point x="691" y="113" type="qcurve" smooth="yes"/>
      <point x="817" y="113"/>
      <point x="1076" y="189"/>
      <point x="1160" y="265" type="qcurve"/>
      <point x="1161" y="473" type="line"/>
      <point x="1159" y="836" type="line"/>
      <point x="971" y="866" type="line"/>
      <point x="971" y="964" type="line"/>
      <point x="1273" y="998" type="line"/>
      <point x="1308" y="998" type="line"/>
      <point x="1333" y="962" type="line"/>
      <point x="1331" y="473" type="line"/>
      <point x="1333" y="151" type="line"/>
      <point x="1531" y="121" type="line"/>
      <point x="1531" y="34" type="line"/>
      <point x="1219" y="0" type="line"/>
      <point x="1184" y="27" type="line"/>
      <point x="1160" y="147" type="line"/>
      <point x="1067" y="72"/>
      <point x="764" y="-21"/>
      <point x="600" y="-21" type="qcurve" smooth="yes"/>
      <point x="402" y="-21"/>
      <point x="204" y="128"/>
      <point x="204" y="258" type="qcurve" smooth="yes"/>
      <point x="204" y="330"/>
      <point x="209" y="448"/>
      <point x="209" y="473" type="qcurve" smooth="yes"/>
      <point x="204" y="836" type="line"/>
    </contour>
  </outline>
</glyph>
<glyph name="w" format="2">
  <advance width="2306"/>
  <unicode hex="0077"/>
  <anchor x="614" y="0" name="bottom"/>
  <anchor x="1083" y="998" name="top"/>
  <outline>
    <contour>
      <point x="568" y="-8" type="line"/>
      <point x="323" y="450" type="line"/>
      <point x="110" y="869" type="line"/>
      <point x="-10" y="904" type="line"/>
      <point x="-10" y="998" type="line"/>
      <point x="418" y="998" type="line"/>
      <point x="418" y="904" type="line"/>
      <point x="286" y="867" type="line"/>
      <point x="481" y="512" type="line"/>
      <point x="595" y="294" type="line"/>
      <point x="647" y="180" type="line"/>
      <point x="662" y="180" type="line"/>
      <point x="726" y="294" type="line"/>
      <point x="873" y="539" type="line"/>
      <point x="1049" y="801" type="line"/>
      <point x="998" y="869" type="line"/>
      <point x="879" y="904" type="line"/>
      <point x="879" y="998" type="line"/>
      <point x="1300" y="998" type="line"/>
      <point x="1300" y="904" type="line"/>
      <point x="1169" y="867" type="line"/>
      <point x="1422" y="517" type="line"/>
      <point x="1567" y="294" type="line"/>
      <point x="1638" y="180" type="line"/>
      <point x="1648" y="180" type="line"/>
      <point x="1711" y="294" type="line"/>
      <point x="1848" y="525" type="line"/>
      <point x="2067" y="874" type="line"/>
      <point x="1931" y="904" type="line"/>
      <point x="1931" y="998" type="line"/>
      <point x="2336" y="998" type="line"/>
      <point x="2336" y="904" type="line"/>
      <point x="2186" y="869" type="line"/>
      <point x="1944" y="424" type="line"/>
      <point x="1685" y="-8" type="line"/>
      <point x="1563" y="-8" type="line"/>
      <point x="1195" y="578" type="line"/>
      <point x="1128" y="691" type="line"/>
      <point x="1118" y="691" type="line"/>
      <point x="1053" y="578" type="line"/>
      <point x="690" y="-8" type="line"/>
    </contour>
  </outline>
</glyph>
<glyph name="braceright" format="2">
  <advance width="901"/>
  <unicode hex="007D"/>
  <outline>
    <contour>
      <point x="19" y="-484" type="qcurve"/>
      <point x="19" y="-372" type="line"/>
      <point x="101" y="-374"/>
      <point x="169" y="-374"/>
      <point x="248" y="-374" type="qcurve" smooth="yes"/>
      <point x="377" y="-374"/>
      <point x="532" y="-278"/>
      <point x="532" y="-180" type="qcurve" smooth="yes"/>
      <point x="532" y="-78"/>
      <point x="446" y="223"/>
      <point x="446" y="314" type="qcurve" smooth="yes"/>
      <point x="446" y="384"/>
      <point x="499" y="516"/>
      <point x="562" y="550" type="qcurve"/>
      <point x="511" y="571"/>
      <point x="446" y="697"/>
      <point x="446" y="792" type="qcurve" smooth="yes"/>
      <point x="446" y="883"/>
      <point x="547" y="1094"/>
      <point x="547" y="1196" type="qcurve" smooth="yes"/>
      <point x="547" y="1294"/>
      <point x="401" y="1388"/>
      <point x="271" y="1388" type="qcurve" smooth="yes"/>
      <point x="194" y="1388"/>
      <point x="92" y="1388"/>
      <point x="10" y="1386" type="qcurve"/>
      <point x="10" y="1500" type="line"/>
      <point x="68" y="1503"/>
      <point x="200" y="1510"/>
      <point x="314" y="1510" type="qcurve" smooth="yes"/>
      <point x="563" y="1510"/>
      <point x="735" y="1343"/>
      <point x="735" y="1184" type="qcurve" smooth="yes"/>
      <point x="735" y="1066"/>
      <point x="605" y="834"/>
      <point x="605" y="716" type="qcurve" smooth="yes"/>
      <point x="605" y="660"/>
      <point x="654" y="603"/>
      <point x="710" y="599" type="qcurve" smooth="yes"/>
      <point x="841" y="589" type="line"/>
      <point x="841" y="481" type="line"/>
      <point x="606" y="481" type="line"/>
      <point x="606" y="364" type="line"/>
      <point x="606" y="246"/>
      <point x="725" y="-50"/>
      <point x="725" y="-168" type="qcurve" smooth="yes"/>
      <point x="725" y="-327"/>
      <point x="539" y="-495"/>
      <point x="291" y="-495" type="qcurve" smooth="yes"/>
      <point x="176" y="-495"/>
      <point x="77" y="-487"/>
    </contour>
  </outline>
</glyph>
<glyph name="asciitilde" format="2">
  <advance width="1590"/>
  <unicode hex="007E"/>
  <outline>
    <contour>
      <point x="18" y="601" type="line"/>
      <point x="80" y="694"/>
      <point x="416" y="807"/>
      <point x="543" y="807" type="qcurve"/>
      <point x="1121" y="672" type="line"/>
      <point x="1181" y="672"/>
      <point x="1391" y="702"/>
      <point x="1482" y="813" type="qcurve"/>
      <point x="1572" y="761" type="line"/>
      <point x="1511" y="638"/>
      <point x="1201" y="515"/>
      <point x="1069" y="515" type="qcurve"/>
      <point x="514" y="642" type="line"/>
      <point x="409" y="644"/>
      <point x="143" y="589"/>
      <point x="86" y="537" type="qcurve"/>
    </contour>
  </outline>
</glyph>
<glyph name="gravecomb" format="2">
  <unicode hex="0300"/>
  <anchor x="0" y="1000" name="_top"/>
  <anchor x="0" y="1497" name="top"/>
  <outline>
    <contour>
      <point x="-58" y="1701" type="qcurve" smooth="yes"/>
      <point x="-67" y="1618"/>
      <point x="-226" y="1525"/>
      <point x="-310" y="1533" type="qcurve" smooth="yes"/>
      <point x="-402" y="1541"/>
      <point x="-511" y="1730"/>
      <point x="-559" y="1863" type="qcurve" smooth="yes"/>
      <point x="267" y="1240" type="line"/>
      <point x="212" y="1148" type="line"/>
      <point x="-349" y="1837" type="line" smooth="yes"/>
      <point x="-197" y="1877"/>
      <point x="-46" y="1818"/>
    </contour>
  </outline>
</glyph>
